# xmcd
#
# Track frame offsets:
#	150
#	15287
#	32283
#	51015
#	69303
#	88490
#	108580
#	122913
#	140745
#	158535
#	174183
#	188308
#	226398
#
# Disc length: 3022 seconds
#
# Revision: 9
# Processed by: cddbd v1.5.1PL0 Copyright (c) Steve Scherf et al.
# Submitted via: EasyCDDAExtractor 8.2.1.1
#
DISCID=990bcc0d
DTITLE=Uncle Kracker - No Stranger to Shame
DYEAR=2002
DGENRE=Pop/Rock, Country-Rock
TTITLE0=Keep It Comin'
TTITLE1=Thunderhead Hawkins
TTITLE2=In a Little While
TTITLE3=I Wish I Had a Dollar
TTITLE4=Drift Away
TTITLE5=Baby Don't Cry
TTITLE6=I Do
TTITLE7=Memphis Soul Song
TTITLE8=I Don't Know
TTITLE9=To Think I Used to Love You
TTITLE10=Letter to My Daughters
TTITLE11=No Stranger to Shame
TTITLE12=After School Special
EXTD=
EXTT0=
EXTT1=
EXTT2=
EXTT3=
EXTT4=
EXTT5=
EXTT6=
EXTT7=
EXTT8=
EXTT9=
EXTT10=
EXTT11=
EXTT12=
PLAYORDER=
